<svg xmlns="http://www.w3.org/2000/svg" viewBox="0 0 450 450" shape-rendering="geometricPrecision">
  <defs>
    <style>.logotype{fill:#d3202d;}</style>
  </defs>
  <circle cx="225" cy="225" r="205" fill="#fffffe"/>
  <circle cx="225" cy="225" r="192.5" stroke="#d3202d" fill="none" stroke-width="11"/>
  <g class="logotype" transform="translate(27,27)">
    <path d="M345.5,113.82c-5.59-6.79-11.63-10.75-17.45-10.75-10.9,0-16.54,9.65-17.12,20.68s6.39,51.37,6.39,73.5c0,23.77-8.58,58.69-8.58,72.06,0,12.76,10.93,19.19,16.65,19.19,7.27,0,21.57-7.64,31.89-30.08a169.52,169.52,0,0,0-11.78-144.6Zm-10,131.75c-3.11.35-5.46-5-5.63-9.92s1.78-28.52,1.78-37.23c0-9-2.61-35.41-2.48-43.78.12-7.58,3.89-10.19,6.68-10.19,5.4,0,15.26,16.18,15.26,50S342.62,244.76,335.48,245.57Z"/>
    <path d="M300.06,122.9q-4.74,3.6-9.72,6.87c6.57,29.29,6.86,59.82,6.27,72.1-.47,9.64-1.2,23-5.49,23.23-4.62.21-6.69-31.83-6.86-42-.34-20.75-.8-41.62-.67-49.15q-3.52,2.07-7.15,4-.53.31-1.11.63c-2.14,16.07-1.27,77.61,8.91,110.12a75.35,75.35,0,0,0,3.9,10.47c2.94,6.25,5.16,11.89,10.53-2.4,2.21-5.88,4.87-15.7,7.3-31.38,2.77-17.83,3.81-34.91,1.35-58.7C306,154.27,304.25,137,300.06,122.9Z"/>
    <path d="M235,240.83q7,1.56,13.74,3.67c.23-8.74-.54-14.47-.3-25.51,0-1.22.19-5.32.59-5.91,1.21-1.8,1.65-3.31,3.35-3.21,3.69.23,5.43,10.68,6.15,15.24a142.69,142.69,0,0,1,1.91,23.54A166,166,0,0,1,277,256.32c-1.33-17.15-8.16-38.75-11.56-45.47-1-1.91-2.05-5.07-3.09-7.89a46.94,46.94,0,0,0,3.05-4.17c6.3-8.34,3.88-34.37-1.82-41.71-3.44-4.42-6.36-6.86-9.28-8.48a4.73,4.73,0,0,0-1.43-.48,167.69,167.69,0,0,1-17.63,5C237.91,179.59,236.65,211.22,235,240.83Zm12.46-73.38c.21-2,2.2-3.86,3.88-3.86s7.47,4.14,7.47,13.72c0,7.21-5.52,14.71-8.37,14.71s-2.77-1.88-3-3.6C246.78,183.19,247.11,170.41,247.43,167.45Z"/>
    <path d="M198.11,236.64a169.18,169.18,0,0,1,29.36,2.56,1.94,1.94,0,0,0,0-.24c.15-2.08,0-7.66,0-10.39s-2.35-3.15-4.91-3.42-5.1-.75-7.82-1-5.15-.17-5.43-6.44c-.15-3.56-.74-8.19-.51-12.75s2-4.93,4.45-4.94a17.46,17.46,0,0,0,2.76,0c2-.12,3.89-.38,4-2.46a32.89,32.89,0,0,0,0-3.35c0-1.17-.73-2.43-3-2.45-1.29,0-4.39,0-5.87,0s-2.35-1.39-2.41-4.44c-.1-4.7.51-14.75.51-14.75.3-4.41,2.86-5.07,5.48-5.42s9.26-.7,11.3-1,1.92-2.52,1.9-4.44c0-1.25,0-4.77,0-7.13a168.75,168.75,0,0,1-29.5,2.59h-.18c1.73,20.42,0,65.59-.65,79.52Z"/>
    <path d="M186.92,202.77c-4.12-.09-6.79-.1-6.79-.1s-2.9.11-2.74-2.55c.27-4.62.32-33.84-.24-44.34-3.36-.42-6.68-1-10-1.59.75,14.11.33,50.68.2,54.9-.06,1.81.29,4.79,2.18,5.22s8.47.22,15.59.08c6.14.28,5.77-1.71,5.66-5.25S191.05,202.85,186.92,202.77Z"/>
    <path d="M142.63,246.39a167.59,167.59,0,0,1,35.36-8.3q6.33-.83,12.79-1.19c0-2.73,0-6.89.06-11.52a2.81,2.81,0,0,0-3.18-3.12s-15.59.84-18.94,1.14c-5.13.46-9.81,2.52-9.3-5.57,1.27-20.07,1-54.42.59-65.15-4.52-1.06-8.95-2.31-13.32-3.73C149.08,165.68,153.75,210.06,142.63,246.39Z"/>
    <path d="M125.65,140.52c2.12,12.31,2.59,34.51,2.85,39.34.29,5.23,1.43,35.67-4.53,41.58-4.64,4.61-11.12,2.31-12.63-4.78-3.73-17.6-1.92-48.48-1.34-57.43.23-3.61-7-4.42-8.64,0C98,168.65,97.51,196,98.89,210.09c2.9,29.49,8,33.46,11.75,37.58,4.92,5.37,13.75,6.86,18.76,4,5.28-3,6.31-8.65,8.56-18.6,4.84-21.39,4.32-56.65.2-87.16C133.91,144.29,129.73,142.49,125.65,140.52Z"/>
    <path d="M79.19,286.62C50.8,253.43,49.73,213,58.78,206.33c3.92-2.87,7.59.88,13.6,8.53,7.92,10,11.86,39.83,14.22,64.57v.17a168.53,168.53,0,0,1,19.69-15.15c-5.55-8.34-7.31-21.59-9.82-32.64-5-22.09-5.81-35.16-23.26-47.38l.91-1C95.87,169.87,96.16,152,99,145.29c2.49-5.94,4.36-12,8.07-15.27A168.4,168.4,0,0,1,90,117.3a83.33,83.33,0,0,1-9.77,31.75c-4.77,8.73-10.75,14.08-16,14.3s-7.61-1.45-8.58-9.9C54.17,140.88,69.19,117,78.71,106.86A170.14,170.14,0,0,1,66.1,92.52,169.3,169.3,0,0,0,64.89,303,170.32,170.32,0,0,1,79.19,286.62Z"/>
  </g>
</svg>
