<?xml version="1.0" standalone="no"?>
<!DOCTYPE svg PUBLIC "-//W3C//DTD SVG 20010904//EN"
 "http://www.w3.org/TR/2001/REC-SVG-20010904/DTD/svg10.dtd">
<svg version="1.0" xmlns="http://www.w3.org/2000/svg"
 width="2100.000000pt" height="2100.000000pt" viewBox="0 0 2100.000000 2100.000000"
 preserveAspectRatio="xMidYMid meet">
<metadata>
Created by potrace 1.11, written by Peter Selinger 2001-2013
</metadata>
<g transform="translate(0.000000,2100.000000) scale(0.100000,-0.100000)"
fill="#000000" stroke="none">
<path d="M9990 20489 c-2734 -138 -5294 -1396 -7081 -3479 -1561 -1819 -2409
-4112 -2409 -6510 0 -1987 581 -3905 1682 -5553 725 -1086 1679 -2040 2765
-2765 1648 -1101 3566 -1682 5553 -1682 2398 0 4691 848 6510 2409 1432 1228
2491 2839 3046 4635 463 1495 566 3107 298 4666 -533 3105 -2522 5789 -5349
7220 -1254 634 -2606 989 -4034 1060 -235 12 -740 11 -981 -1z m1050 -800
c1959 -111 3836 -853 5350 -2115 426 -355 882 -814 1231 -1240 1153 -1407
1860 -3111 2038 -4914 34 -339 43 -547 43 -920 0 -373 -9 -581 -43 -920 -134
-1354 -563 -2647 -1265 -3818 -781 -1299 -1890 -2403 -3194 -3179 -1266 -753
-2653 -1177 -4165 -1274 -232 -15 -838 -15 -1070 0 -1622 104 -3097 584 -4440
1444 -866 555 -1689 1311 -2319 2131 -1055 1371 -1696 2986 -1865 4696 -34
339 -43 547 -43 920 0 373 9 581 43 920 178 1803 885 3507 2038 4914 349 426
805 885 1231 1240 1517 1265 3394 2006 5360 2116 358 20 711 20 1070 -1z"/>
<path d="M4058 16193 c-978 -1184 -1600 -2471 -1853 -3836 -309 -1667 -64
-3425 719 -5149 261 -577 625 -1213 926 -1623 l65 -87 168 173 c283 292 447
480 487 556 l22 42 -85 133 c-642 1007 -1011 1940 -1067 2696 -38 511 113 871
378 898 192 20 464 -160 690 -458 396 -521 688 -1421 805 -2475 12 -112 26
-203 31 -203 23 0 560 444 639 528 55 60 55 61 32 252 -126 1023 -473 2148
-880 2856 -225 391 -526 725 -775 860 l-50 27 68 37 c648 352 1219 1026 1618
1911 122 272 249 625 318 887 l35 133 -147 117 c-383 306 -579 445 -619 440
-23 -3 -28 -14 -68 -153 -154 -534 -371 -1016 -641 -1427 -155 -234 -357 -467
-522 -599 -197 -158 -387 -220 -526 -173 -130 45 -223 221 -256 486 -26 216
46 482 231 849 235 465 612 999 1163 1647 l29 34 -44 43 c-158 153 -761 715
-769 715 -5 0 -60 -62 -122 -137z"/>
<path d="M16740 15265 c-168 -46 -303 -161 -384 -325 -161 -327 -152 -801 28
-1550 166 -692 248 -1571 217 -2315 -7 -154 -16 -428 -21 -609 -5 -182 -11
-362 -14 -400 -3 -39 -11 -132 -17 -206 -42 -539 -117 -933 -324 -1698 -97
-360 -129 -526 -147 -754 -19 -235 9 -473 78 -674 110 -325 340 -599 588 -703
51 -21 77 -26 156 -26 l96 0 146 72 c841 415 1446 1321 1687 2528 150 747 165
1572 50 2720 -118 1191 -348 2126 -690 2815 -299 600 -659 970 -1079 1105
-107 35 -282 44 -370 20z m610 -2200 c114 -40 339 -239 469 -415 162 -218 289
-584 360 -1035 84 -537 105 -1378 45 -1835 -64 -492 -249 -900 -521 -1150 -81
-74 -236 -179 -317 -215 -203 -90 -294 -35 -348 210 -24 109 -16 583 17 1045
35 487 38 906 16 1887 -15 671 -10 1147 13 1274 37 205 127 283 266 234z"/>
<path d="M15585 14435 c-49 -50 -127 -118 -172 -149 -93 -65 -91 -60 -73 -186
52 -366 140 -1274 174 -1800 68 -1040 58 -1587 -39 -2115 -38 -204 -96 -385
-125 -385 -31 0 -94 156 -144 360 -187 768 -295 1942 -313 3416 l-6 521 -71
-75 c-111 -117 -244 -197 -347 -209 -26 -3 -52 -9 -58 -13 -27 -16 37 -1467
99 -2245 156 -1957 401 -3183 771 -3851 105 -189 196 -254 273 -193 62 49 101
170 181 558 29 146 74 360 100 474 156 714 265 1560 305 2366 13 263 13 942 0
1186 -47 887 -184 1633 -424 2325 -20 57 -38 105 -39 106 -1 0 -42 -40 -92
-91z"/>
<path d="M7266 13783 c2 -27 9 -489 14 -1028 11 -1134 2 -1711 -30 -2020 -83
-808 -253 -1365 -415 -1365 -100 0 -215 174 -342 520 -205 561 -224 1351 -53
2204 38 187 111 476 150 590 l29 86 -127 69 c-70 38 -190 103 -266 145 -76 42
-146 76 -156 76 -96 0 -232 -446 -324 -1067 -64 -425 -94 -785 -103 -1188 -20
-1023 157 -1805 517 -2283 82 -109 250 -266 354 -331 166 -103 321 -157 539
-188 98 -14 129 -15 175 -5 180 38 339 191 453 437 155 337 247 798 301 1520
20 266 17 1392 -5 1765 -32 545 -77 1078 -132 1579 -14 124 -25 230 -25 237 0
11 -529 294 -550 294 -5 0 -7 -21 -4 -47z"/>
<path d="M8215 13333 c25 -708 48 -2477 42 -3333 -5 -758 -14 -1013 -41 -1195
-8 -58 -9 -85 -2 -85 6 0 67 11 136 25 395 77 891 116 1491 116 l368 0 30 34
c55 63 70 169 71 494 l0 234 -132 -7 c-361 -18 -590 -38 -968 -87 -249 -32
-325 -18 -369 68 -44 88 -49 212 -31 908 5 209 14 724 20 1145 6 421 16 869
23 995 17 329 16 401 -11 451 -25 49 -67 92 -129 136 -53 36 -481 268 -495
268 -6 0 -7 -64 -3 -167z"/>
<path d="M13160 13214 c-14 -2 -63 -9 -110 -15 -164 -22 -311 -76 -385 -140
-70 -62 -64 126 -65 -2165 -1 -2260 -4 -2150 52 -2201 41 -37 171 -101 268
-131 96 -30 267 -68 274 -61 3 2 10 238 16 524 15 687 21 797 48 857 27 61 69
88 139 88 43 0 55 -4 71 -25 34 -43 119 -227 156 -338 102 -303 237 -930 280
-1297 16 -131 17 -136 49 -163 63 -56 242 -168 361 -227 132 -65 327 -141 337
-131 20 20 -30 511 -86 846 -106 632 -332 1506 -481 1860 -19 44 -34 85 -34
92 0 7 13 34 30 61 50 82 138 273 169 369 39 120 67 266 81 429 16 188 18 797
2 904 -47 317 -155 533 -336 677 -123 96 -282 159 -466 183 -71 9 -315 11
-370 4z m290 -789 c94 -12 186 -87 232 -192 40 -91 50 -145 55 -313 11 -335
-63 -612 -211 -792 -51 -62 -136 -128 -183 -142 l-23 -7 0 725 0 725 23 4 c12
2 31 2 42 1 11 -2 40 -6 65 -9z"/>
<path d="M9272 13013 c-37 -126 -51 -510 -58 -1573 -9 -1245 5 -1440 105
-1468 14 -4 193 -7 396 -6 318 0 379 2 434 17 76 21 128 57 147 103 22 53 39
348 26 446 -7 45 -16 86 -20 90 -4 4 -77 11 -163 14 -117 5 -199 3 -335 -11
-100 -10 -189 -15 -199 -12 -12 5 -15 14 -11 31 11 45 76 913 130 1741 14 209
28 412 31 451 8 105 -15 126 -180 168 -56 14 -248 46 -278 46 -8 0 -19 -17
-25 -37z"/>
<path d="M11990 13030 c-246 -24 -600 -49 -840 -59 -158 -7 -205 -12 -247 -29
-80 -31 -128 -74 -165 -150 l-33 -67 -3 -1820 c-2 -1248 1 -1842 8 -1889 6
-38 20 -86 31 -106 35 -62 54 -68 229 -68 311 -1 606 -19 720 -46 140 -32 257
-68 418 -128 74 -27 135 -48 137 -46 2 1 -4 210 -13 463 l-17 460 -315 5
c-208 4 -324 10 -342 17 -31 14 -29 6 -53 248 -23 232 -31 606 -15 718 l12 87
194 0 194 0 0 340 0 340 -187 2 -188 3 -9 205 c-10 248 2 453 31 503 25 43
101 92 181 118 37 11 167 40 290 64 123 25 227 47 232 50 6 4 10 164 10 406
l0 399 -37 -1 c-21 -1 -121 -10 -223 -19z"/>
</g>
</svg>
